HIERARCHY
ROOT Hips
{
    OFFSET 0.0 0.0 0.0
    CHANNELS 6 Xposition Yposition Zposition Zrotation Xrotation Yrotation
    JOINT Spine
    {
        OFFSET 0.0 5.0 0.0
        CHANNELS 3 Zrotation Xrotation Yrotation
        JOINT Chest
        {
            OFFSET 0.0 5.0 0.0
            CHANNELS 3 Zrotation Xrotation Yrotation
            JOINT Neck
            {
                OFFSET 0.0 8.0 0.0
                CHANNELS 3 Zrotation Xrotation Yrotation
                JOINT Head
                {
                    OFFSET 0.0 5.0 0.0
                    CHANNELS 3 Zrotation Xrotation Yrotation
                    End Site
                    {
                        OFFSET 0.0 3.0 0.0
                    }
                }
            }
            JOINT LeftShoulder
            {
                OFFSET -5.0 0.0 0.0
                CHANNELS 3 Zrotation Xrotation Yrotation
                JOINT LeftArm
                {
                    OFFSET 0.0 -10.0 0.0
                    CHANNELS 3 Zrotation Xrotation Yrotation
                    JOINT LeftForeArm
                    {
                        OFFSET 0.0 -10.0 0.0
                        CHANNELS 3 Zrotation Xrotation Yrotation
                        End Site
                        {
                            OFFSET 0.0 -3.0 0.0
                        }
                    }
                }
            }
        }
    }
}

MOTION
Frames: 40
Frame Time: 0.033333
970.000000 442.938926 154.709357 0.000000 0.000000 0.000000 0.000000 0.000000 0.000000 29.678605 1.543574 0.000000 180.000000 8.818652 0.000000 29.744881 2.861534 -0.000000 150.255119 -9.854481 30.000000 19.983107 3.237616 0.000000 18.000000 0.812921 0.000000
1354.522934 467.411410 120.996991 0.000000 0.000000 0.000000 0.000000 0.000000 0.000000 150.622570 -7.305111 4.973798 -29.377430 6.012556 4.973798 140.176400 -0.141271 3.759997 -12.221629 8.187144 29.763441 132.794256 -3.899052 -3.759997 -2.626015 -0.134548 0.313953
969.997807 442.887864 145.385656 0.000000 0.000000 0.000000 0.000000 0.000000 0.000000 31.061399 12.770804 9.635073 180.000000 6.984176 9.635073 30.285790 -13.234209 7.460697 149.714210 -1.252459 29.057495 19.151579 -1.623412 -7.460697 18.000000 0.095298 0.626666
1246.736984 514.278152 122.103031 0.000000 0.000000 0.000000 0.000000 0.000000 0.000000 143.557092 -16.137293 13.690942 -36.442908 1.956754 13.690942 133.761037 -1.654745 11.043737 -156.950665 -5.471353 27.893295 0.000000 0.000000 0.000000 1.928484 0.472292 0.936907
1245.221100 458.637464 132.229642 0.000000 0.000000 0.000000 0.000000 0.000000 0.000000 160.701064 28.435322 16.886559 -19.298936 10.567549 16.886559 140.193827 -13.033431 14.452610 -157.554825 -6.042467 26.289200 29.500467 5.205400 -14.452610 -15.049953 -0.520540 1.243449
1257.365570 418.514181 108.855300 0.000000 0.000000 0.000000 0.000000 0.000000 0.000000 -143.710676 6.408184 19.021130 36.289324 -0.363361 19.021130 163.220413 -0.157616 17.633558 11.688054 1.348892 24.270510 152.038385 -2.448275 -17.633558 -2.339948 0.183069 1.545085
1275.099564 408.163741 103.720191 0.000000 0.000000 0.000000 0.000000 0.000000 0.000000 -132.929531 -6.442001 19.960535 47.070469 0.626944 19.960535 173.491912 0.799263 20.536413 -160.709681 -4.973112 21.869059 33.138793 5.985229 -20.536413 -14.686121 -0.598523 1.840623
1290.611115 384.880857 87.368559 0.000000 0.000000 0.000000 0.000000 0.000000 0.000000 -132.705235 2.042673 19.645745 47.294765 -8.244326 19.645745 -173.778854 3.969749 23.115397 20.496835 -5.195303 19.122720 -161.220290 -3.670330 -23.115397 1.723235 0.362998 2.128896
1302.817154 380.305352 98.968155 0.000000 0.000000 0.000000 0.000000 0.000000 0.000000 -131.493915 3.392866 18.096541 48.506085 -4.943586 18.096541 -165.393697 1.256829 25.329838 23.154815 -3.642461 16.074804 -178.200316 1.419683 -25.329838 0.138141 0.021064 2.408768
1304.997711 379.563582 82.949535 0.000000 0.000000 0.000000 0.000000 0.000000 0.000000 -126.727972 0.757028 15.410265 53.272028 -3.570487 15.410265 -160.219593 1.327017 27.144812 28.448880 -3.192420 12.773379 -174.368770 -0.312764 -27.144812 0.079526 0.089437 2.679134
1311.668472 386.890390 70.972101 0.000000 0.000000 0.000000 0.000000 0.000000 0.000000 -122.308728 -14.927061 11.755705 57.691272 8.881436 11.755705 -158.801130 -2.824202 28.531695 150.942637 1.185056 9.270510 -154.878332 -4.179881 -28.531695 2.695409 0.512753 2.938926
1305.131836 395.180186 73.552652 0.000000 0.000000 0.000000 0.000000 0.000000 0.000000 -125.112810 4.601799 7.362491 54.887190 9.305813 7.362491 -146.487292 -5.821644 29.468618 -175.167369 4.107894 5.621439 -159.224034 -4.686488 -29.468618 1.782042 0.593507 3.187120
1296.320457 392.734526 62.332255 0.000000 0.000000 0.000000 0.000000 0.000000 0.000000 -131.035750 14.752263 2.506665 48.964250 -17.079906 2.506665 -128.969563 6.110307 29.940802 38.856147 -0.061855 1.883716 -134.776850 -0.936122 -29.940802 3.458429 -0.192110 3.422736
1306.963577 386.612041 71.623299 0.000000 0.000000 0.000000 0.000000 0.000000 0.000000 -124.469622 0.865481 -2.506665 55.530378 -5.836192 -2.506665 -109.994856 -0.078653 29.940802 37.691309 -4.298983 -1.883716 -118.274788 2.824810 -29.940802 5.098336 -0.145037 3.644843
969.892723 442.572198 57.398867 0.000000 0.000000 0.000000 0.000000 0.000000 0.000000 41.287575 8.054821 -7.362491 180.000000 0.488381 -7.362491 30.974696 -8.241915 29.468618 149.025304 -14.750781 -5.621439 15.072869 7.264305 -29.468618 18.000000 -0.291514 3.852566
969.876883 442.545207 66.643860 0.000000 0.000000 0.000000 0.000000 0.000000 0.000000 42.241956 19.714317 -11.755705 180.000000 5.286709 -11.755705 30.826133 -0.910831 28.531695 149.173867 -9.136633 -9.270510 14.823070 0.517364 -28.531695 18.000000 -0.040764 4.045085
969.859960 442.518116 62.431129 0.000000 0.000000 0.000000 0.000000 0.000000 0.000000 43.199779 -2.712040 -15.410265 180.000000 9.338942 -15.410265 30.649504 13.512259 27.144812 149.350496 -6.332837 -12.773379 14.587557 2.552310 -27.144812 18.000000 -0.029803 4.221640
969.841956 442.490926 62.839600 0.000000 0.000000 0.000000 0.000000 0.000000 0.000000 44.157210 -4.004077 -18.096541 180.000000 6.272609 -18.096541 30.446417 -7.344665 25.329838 149.553583 1.978344 -16.074804 14.366154 -3.918408 -25.329838 18.000000 0.343520 4.381533
969.822873 442.463637 60.105607 0.000000 0.000000 0.000000 0.000000 0.000000 0.000000 45.110117 -27.157720 -19.645745 180.000000 -0.665401 -19.645745 30.218633 3.511861 23.115397 149.781367 -2.385002 -19.122720 14.158653 9.103277 -23.115397 18.000000 -0.247964 4.524135
969.802712 442.436251 56.858969 0.000000 0.000000 0.000000 0.000000 0.000000 0.000000 46.054109 -25.355537 -19.960535 180.000000 10.966153 -19.960535 29.968037 8.270700 20.536413 150.031963 8.781266 -21.869059 13.964823 0.178438 -20.536413 18.000000 0.110555 4.648882
1187.040939 541.658249 51.008459 0.000000 0.000000 0.000000 0.000000 0.000000 0.000000 82.806623 30.218970 -19.021130 -97.193377 4.957485 -19.021130 45.395981 -4.117117 17.633558 -156.144455 -3.121884 -24.270510 0.000000 0.000000 0.000000 0.000000 0.000000 0.000000
1182.242889 522.024286 47.294133 0.000000 0.000000 0.000000 0.000000 0.000000 0.000000 -105.721938 -8.905300 -16.886559 74.278062 29.677924 -16.886559 -155.708006 -3.421654 14.452610 -157.302521 -2.316875 -26.289200 0.000000 0.000000 0.000000 2.684983 0.296661 4.842916
1180.914459 527.065626 57.667525 0.000000 0.000000 0.000000 0.000000 0.000000 0.000000 88.055617 0.898556 -13.690942 -91.944383 5.429410 -13.690942 -158.862018 -2.875369 11.043737 -151.747289 -1.969763 -27.893295 0.000000 0.000000 0.000000 0.000000 0.000000 0.000000
1236.800194 541.387432 63.646662 0.000000 0.000000 0.000000 0.000000 0.000000 0.000000 -85.588400 -5.236417 -9.635073 94.411600 17.894365 -9.635073 -159.297106 -8.627275 7.460697 -157.915391 -1.862625 -29.057495 26.607362 1.833397 -7.460697 14.926890 1.037686 4.960574
1161.066513 575.006626 46.380833 0.000000 0.000000 0.000000 0.000000 0.000000 0.000000 -81.021168 -18.058704 -4.973798 98.978832 11.301561 -4.973798 -102.851701 5.411713 3.759997 -157.041007 -1.160086 -29.763441 21.429890 2.763728 -3.759997 10.859432 -0.097998 4.990134
1255.636253 512.645942 54.150750 0.000000 0.000000 0.000000 0.000000 0.000000 0.000000 77.832564 -2.091105 -0.000000 -102.167436 4.184800 -0.000000 -158.264834 -2.518125 0.000000 -130.745502 4.567180 -30.000000 -157.699225 -3.326060 -0.000000 0.000000 0.000000 0.000000
1265.118484 521.473864 49.372517 0.000000 0.000000 0.000000 0.000000 0.000000 0.000000 64.078276 -3.296167 4.973798 -115.921724 7.028565 4.973798 41.397952 -3.309026 -3.759997 -139.329851 3.321462 -29.763441 20.223252 0.474455 3.759997 -16.047574 0.050344 4.990134
1228.099480 522.138258 57.420014 0.000000 0.000000 0.000000 0.000000 0.000000 0.000000 71.050901 -1.121627 9.635073 -108.949099 2.180204 9.635073 150.099970 5.224251 -7.460697 -139.894702 1.810085 -29.057495 -156.275691 -2.936570 7.460697 0.000000 0.000000 0.000000
1240.357246 528.695873 80.472554 0.000000 0.000000 0.000000 0.000000 0.000000 0.000000 65.413351 -4.719117 13.690942 -114.586649 13.585617 13.690942 147.242328 3.563875 -11.043737 -154.470720 -1.595359 -27.893295 25.557225 3.294902 11.043737 -15.444278 -0.329490 4.911436
1231.815262 551.380248 42.941576 0.000000 0.000000 0.000000 0.000000 0.000000 0.000000 56.412506 6.462750 16.886559 -123.587494 -1.521245 16.886559 -153.392336 0.271162 -14.452610 -154.784582 -2.466912 -26.289200 24.191555 4.368963 14.452610 -15.580844 -0.436896 4.842916
1221.475182 508.360147 67.525811 0.000000 0.000000 0.000000 0.000000 0.000000 0.000000 77.450622 -13.249779 19.021130 -102.549378 11.027069 19.021130 -156.789784 -2.991651 -17.633558 -125.590168 3.356076 -24.270510 -160.017240 -3.312306 17.633558 1.833434 0.403558 4.755283
969.477684 442.100429 69.358540 0.000000 0.000000 0.000000 0.000000 0.000000 0.000000 54.932575 13.721728 19.960535 180.000000 4.499111 19.960535 25.919122 -13.399737 -20.536413 154.080878 -2.760789 -21.869059 12.612867 -4.872480 20.536413 18.000000 0.176826 4.648882
1480.140495 518.878891 68.961530 0.000000 0.000000 0.000000 0.000000 0.000000 0.000000 -110.621767 -77.145311 19.645745 69.378233 -86.362712 19.645745 -158.235933 -2.675322 -23.115397 166.031448 -6.234395 -19.122720 -155.186432 -2.742459 23.115397 2.641553 0.317850 4.524135
1271.640472 556.840560 73.518864 0.000000 0.000000 0.000000 0.000000 0.000000 0.000000 -94.404719 6.632676 18.096541 85.595281 -6.235519 18.096541 -62.417786 3.488954 -25.329838 23.992813 -2.348442 -16.074804 -76.856107 0.673037 25.329838 7.708835 0.149206 4.381533
1258.556786 530.268441 72.601553 0.000000 0.000000 0.000000 0.000000 0.000000 0.000000 78.355945 -4.676009 15.410265 -101.644055 5.122561 15.410265 35.068294 2.593876 -27.144812 -54.090640 6.261915 -12.773379 35.848220 -1.815583 27.144812 -8.104639 -0.852178 4.221640
1250.800209 527.150567 79.916757 0.000000 0.000000 0.000000 0.000000 0.000000 0.000000 72.417769 -2.938854 11.755705 -107.582231 -7.242351 11.755705 24.571109 1.645949 -28.531695 -39.196117 2.084481 -9.270510 10.411117 -4.679497 28.531695 -9.048616 1.058446 4.045085
1243.466148 571.776259 105.624541 0.000000 0.000000 0.000000 0.000000 0.000000 0.000000 86.301473 11.659841 7.362491 -93.698527 -4.221438 7.362491 24.553534 -3.998651 -29.468618 -153.460385 -4.266063 -5.621439 19.510484 3.595504 29.468618 -10.109500 -4.561649 3.852566
1261.883812 566.052918 89.785453 0.000000 0.000000 0.000000 0.000000 0.000000 0.000000 94.015209 4.504643 2.506665 -85.984791 -7.906327 2.506665 38.959993 -1.725734 -29.940802 -154.008305 -4.571827 -1.883716 20.870951 3.738848 29.940802 -10.872440 -0.202883 3.644843
1284.436798 527.190542 99.449757 0.000000 0.000000 0.000000 0.000000 0.000000 0.000000 111.186365 -6.739837 -2.506665 -68.813635 3.972157 -2.506665 58.506163 -5.840476 -29.940802 -19.138727 -0.675660 1.883716 51.457372 10.877817 29.940802 -5.203198 -1.581295 3.422736
1272.860069 533.494012 105.193391 0.000000 0.000000 0.000000 0.000000 0.000000 0.000000 72.301471 -15.493749 -7.362491 -107.698529 -16.512265 -7.362491 78.802573 1.548863 -29.468618 -154.772375 -5.069724 5.621439 26.927455 4.087962 29.468618 -15.307255 -0.408796 3.187120
